<svg width="40" height="40" viewBox="0 0 40 40" fill="none" xmlns="http://www.w3.org/2000/svg">
  <!-- Background -->
  <rect width="40" height="40" rx="10" fill="#B6A281"/>

  <!-- Camera outline -->
  <path d="M20 15.5C17.5147 15.5 15.5 17.5147 15.5 20C15.5 22.4853 17.5147 24.5 20 24.5C22.4853 24.5 24.5 22.4853 24.5 20C24.5 17.5147 22.4853 15.5 20 15.5ZM20 22.8333C18.4353 22.8333 17.1667 21.5647 17.1667 20C17.1667 18.4353 18.4353 17.1667 20 17.1667C21.5647 17.1667 22.8333 18.4353 22.8333 20C22.8333 21.5647 21.5647 22.8333 20 22.8333Z" fill="#001527"/>

  <!-- Dot -->
  <circle cx="25" cy="14.5" r="1.25" fill="#001527"/>

  <!-- Square frame -->
  <path d="M25.5 10H14.5C12.0147 10 10 12.0147 10 14.5V25.5C10 27.9853 12.0147 30 14.5 30H25.5C27.9853 30 30 27.9853 30 25.5V14.5C30 12.0147 27.9853 10 25.5 10ZM28.3333 25.5C28.3333 27.0647 27.0647 28.3333 25.5 28.3333H14.5C12.9353 28.3333 11.6667 27.0647 11.6667 25.5V14.5C11.6667 12.9353 12.9353 11.6667 14.5 11.6667H25.5C27.0647 11.6667 28.3333 12.9353 28.3333 14.5V25.5Z" fill="#001527"/>
</svg>
