<svg width="40" height="40" viewBox="0 0 40 40" fill="none" xmlns="http://www.w3.org/2000/svg">
  <rect width="40" height="40" rx="8" fill="#B6A281"/>
  <path d="M20.05 10.5C14.5 10.5 10 14.98 10 20.5C10 22.28 10.5 23.94 11.36 25.36L10.09 29.91L14.84 28.67C16.22 29.43 17.79 29.85 20.05 29.85C25.6 29.85 30 25.37 30 20.5C30 15.63 25.6 10.5 20.05 10.5ZM25.5 24.15C25.25 24.92 24.09 25.58 23.28 25.74C22.75 25.85 22.06 25.93 19.84 25.01C16.89 23.82 15.02 20.83 14.87 20.64C14.73 20.45 13.63 18.96 13.63 17.41C13.63 15.86 14.43 15.1 14.72 14.8C14.97 14.53 15.39 14.44 15.79 14.44C15.92 14.44 16.04 14.45 16.15 14.45C16.44 14.46 16.59 14.47 16.79 14.94C17.04 15.53 17.65 17.08 17.73 17.23C17.81 17.38 17.89 17.58 17.79 17.77C17.7 17.97 17.62 18.05 17.47 18.23C17.32 18.41 17.14 18.64 17.01 18.77C16.86 18.92 16.7 19.08 16.88 19.37C17.06 19.66 17.64 20.63 18.5 21.38C19.61 22.32 20.54 22.62 20.86 22.77C21.15 22.9 21.49 22.87 21.68 22.66C21.92 22.39 22.18 21.98 22.45 21.58C22.65 21.27 22.94 21.23 23.21 21.36C23.48 21.48 25.03 22.24 25.32 22.38C25.61 22.53 25.8 22.6 25.88 22.72C25.96 22.85 25.96 23.44 25.7 24.15H25.5Z" fill="#001527"/>
</svg>
